<svg width="37" height="38" viewBox="0 0 37 38" fill="none" xmlns="http://www.w3.org/2000/svg">
<path fill-rule="evenodd" clip-rule="evenodd" d="M16.6159 10C16.3038 9.99985 15.998 10.0883 15.7342 10.2551C15.4704 10.4218 15.2593 10.6601 15.1255 10.9421C14.4812 10.9477 13.98 10.9769 13.5316 11.1521C12.9962 11.3615 12.5307 11.7174 12.1882 12.179C11.8424 12.6434 11.6795 13.2407 11.4571 14.0612L11.4128 14.2214L10.9296 17.0137C10.7553 17.1343 10.6036 17.2774 10.4717 17.4461C9.62293 18.5323 10.0271 20.1498 10.8354 23.382C11.3488 25.4386 11.606 26.4663 12.3728 27.0655C13.1397 27.6637 14.1995 27.6637 16.3191 27.6637H20.6809C22.8005 27.6637 23.8603 27.6637 24.6272 27.0655C25.394 26.4663 25.6503 25.4386 26.1646 23.382C26.9729 20.1489 27.3771 18.5332 26.5283 17.4461C26.3985 17.2789 26.2438 17.1327 26.0695 17.0127L25.5862 14.2223L25.5429 14.0622C25.3196 13.2407 25.1566 12.6434 24.8118 12.1781C24.4692 11.7168 24.0036 11.3613 23.4684 11.1521C23.02 10.9769 22.5179 10.9477 21.8745 10.943C21.7408 10.6608 21.5298 10.4224 21.266 10.2555C21.0022 10.0885 20.6963 9.99993 20.3841 10H16.6159ZM24.5462 16.4965L24.2051 14.5294C23.9385 13.5497 23.8415 13.2416 23.6776 13.0212C23.4931 12.7726 23.2424 12.581 22.9541 12.4682C22.7468 12.3872 22.4962 12.3636 21.8726 12.357C21.7387 12.6384 21.5278 12.8761 21.2644 13.0425C21.0009 13.2089 20.6957 13.2972 20.3841 13.2972H16.6159C16.3043 13.2972 15.9991 13.2089 15.7356 13.0425C15.4722 12.8761 15.2613 12.6384 15.1274 12.357C14.5028 12.3636 14.2532 12.3872 14.0459 12.4682C13.7576 12.581 13.5069 12.7726 13.3224 13.0212C13.1585 13.2416 13.0615 13.5488 12.7949 14.5285L12.4538 16.4965C13.394 16.3589 14.647 16.3589 16.3191 16.3589H20.6809C22.353 16.3589 23.606 16.3589 24.5462 16.4965ZM14.7317 19.4206C14.9191 19.4206 15.0988 19.4951 15.2313 19.6276C15.3639 19.7601 15.4383 19.9398 15.4383 20.1272V23.8954C15.4383 24.0828 15.3639 24.2626 15.2313 24.3951C15.0988 24.5276 14.9191 24.602 14.7317 24.602C14.5444 24.602 14.3646 24.5276 14.2321 24.3951C14.0996 24.2626 14.0252 24.0828 14.0252 23.8954V20.1272C14.0252 19.9398 14.0996 19.7601 14.2321 19.6276C14.3646 19.4951 14.5444 19.4206 14.7317 19.4206ZM22.9748 20.1272C22.9748 19.9398 22.9004 19.7601 22.7679 19.6276C22.6354 19.4951 22.4556 19.4206 22.2683 19.4206C22.0809 19.4206 21.9012 19.4951 21.7687 19.6276C21.6361 19.7601 21.5617 19.9398 21.5617 20.1272V23.8954C21.5617 24.0828 21.6361 24.2626 21.7687 24.3951C21.9012 24.5276 22.0809 24.602 22.2683 24.602C22.4556 24.602 22.6354 24.5276 22.7679 24.3951C22.9004 24.2626 22.9748 24.0828 22.9748 23.8954V20.1272ZM18.5 19.4206C18.6874 19.4206 18.8671 19.4951 18.9996 19.6276C19.1321 19.7601 19.2065 19.9398 19.2065 20.1272V23.8954C19.2065 24.0828 19.1321 24.2626 18.9996 24.3951C18.8671 24.5276 18.6874 24.602 18.5 24.602C18.3126 24.602 18.1329 24.5276 18.0004 24.3951C17.8679 24.2626 17.7935 24.0828 17.7935 23.8954V20.1272C17.7935 19.9398 17.8679 19.7601 18.0004 19.6276C18.1329 19.4951 18.3126 19.4206 18.5 19.4206Z" fill="white"/>
<rect x="0.5" y="0.5" width="36" height="36.6637" rx="18" stroke="white"/>
</svg>
