<svg width="24" height="24" viewBox="0 0 24 24" fill="none" xmlns="http://www.w3.org/2000/svg">
<path d="M14.25 3C14.0469 3 13.8711 2.92578 13.7227 2.77734C13.5742 2.62891 13.5 2.45312 13.5 2.25C13.5 2.15625 13.5312 2.03516 13.5938 1.88672C13.6562 1.73828 13.7266 1.58203 13.8047 1.41797C13.8828 1.25391 13.9648 1.09766 14.0508 0.949219C14.1367 0.800781 14.2031 0.683594 14.25 0.597656C14.2969 0.683594 14.3594 0.800781 14.4375 0.949219C14.5156 1.09766 14.5977 1.25391 14.6836 1.41797C14.7695 1.58203 14.8438 1.73828 14.9062 1.88672C14.9688 2.03516 15 2.15625 15 2.25C15 2.45312 14.9258 2.62891 14.7773 2.77734C14.6289 2.92578 14.4531 3 14.25 3ZM24 10.5V24H0V10.5L13.5 6V4.125C13.5 4.05469 13.5273 3.99609 13.582 3.94922C13.6367 3.90234 13.707 3.86328 13.793 3.83203C13.8789 3.80078 13.9609 3.78125 14.0391 3.77344C14.1172 3.76562 14.1875 3.75781 14.25 3.75C14.3047 3.75 14.3711 3.75391 14.4492 3.76172C14.5273 3.76953 14.6094 3.78906 14.6953 3.82031C14.7812 3.85156 14.8516 3.89062 14.9062 3.9375C14.9609 3.98438 14.9922 4.04688 15 4.125V5.49609L18 4.5L24 10.5ZM14.25 9C14.1953 9 14.1289 8.99609 14.0508 8.98828C13.9727 8.98047 13.8906 8.96094 13.8047 8.92969C13.7188 8.89844 13.6484 8.85938 13.5938 8.8125C13.5391 8.76562 13.5078 8.70312 13.5 8.625V7.58203L4.74609 10.5H21.8789L17.5898 6.21094L15 7.07812V8.625C15 8.69531 14.9727 8.75391 14.918 8.80078C14.8633 8.84766 14.793 8.88672 14.707 8.91797C14.6211 8.94922 14.5391 8.96875 14.4609 8.97656C14.3828 8.98438 14.3125 8.99219 14.25 9ZM1.5 12V16.5H22.5V12H1.5ZM22.5 22.5V18H1.5V22.5H22.5Z" fill="#F0F0F0"/>
</svg>
