<svg width="22" height="20" viewBox="0 0 22 20" fill="none" xmlns="http://www.w3.org/2000/svg">
<path d="M1.99999 7.26348V7.24998C1.99997 5.91656 2.39488 4.61302 3.13489 3.5038C3.8749 2.39458 4.92686 1.52938 6.15805 1.01736C7.38924 0.50534 8.74449 0.369441 10.0528 0.626807C11.3612 0.884173 12.564 1.52327 13.5095 2.46348C14.2534 2.09629 15.0844 1.94191 15.9106 2.01739C16.7367 2.09286 17.526 2.39526 18.191 2.89116C18.8561 3.38707 19.3712 4.05718 19.6793 4.82746C19.9874 5.59773 20.0766 6.43819 19.937 7.25598C20.1422 7.27503 20.3414 7.33618 20.5219 7.43561C20.7025 7.53505 20.8606 7.67063 20.9865 7.8339C21.1123 7.99718 21.2031 8.18463 21.2533 8.38457C21.3034 8.58451 21.3119 8.79264 21.278 8.99598C20.6 13.0745 18.923 15.656 16.25 16.742V17.75C16.25 18.3467 16.0129 18.919 15.591 19.341C15.169 19.7629 14.5967 20 14 20H7.99999C7.40325 20 6.83096 19.7629 6.409 19.341C5.98704 18.919 5.74999 18.3467 5.74999 17.75V16.742C3.07699 15.656 1.39999 13.0745 0.72199 8.99598C0.689269 8.79804 0.696586 8.59556 0.743507 8.4005C0.790429 8.20544 0.876002 8.02178 0.995162 7.86039C1.11432 7.69899 1.26465 7.56313 1.43724 7.46086C1.60984 7.35859 1.8012 7.29198 1.99999 7.26498V7.26348ZM3.49999 7.24998H4.99999C4.99999 6.25541 5.39508 5.30159 6.09834 4.59833C6.8016 3.89507 7.75543 3.49998 8.74999 3.49998C9.74455 3.49998 10.6984 3.89507 11.4016 4.59833C12.1049 5.30159 12.5 6.25541 12.5 7.24998H14C14 5.85759 13.4469 4.52223 12.4623 3.53767C11.4777 2.5531 10.1424 1.99998 8.74999 1.99998C7.3576 1.99998 6.02225 2.5531 5.03768 3.53767C4.05311 4.52223 3.49999 5.85759 3.49999 7.24998ZM6.49999 7.24998H11C11 6.65324 10.7629 6.08094 10.341 5.65899C9.91902 5.23703 9.34673 4.99998 8.74999 4.99998C8.15325 4.99998 7.58096 5.23703 7.159 5.65899C6.73704 6.08094 6.49999 6.65324 6.49999 7.24998ZM16.799 7.24998H18.4055C18.5187 6.80668 18.5293 6.34339 18.4364 5.8954C18.3434 5.44741 18.1495 5.02655 17.8692 4.66488C17.589 4.3032 17.2299 4.01027 16.8193 3.8084C16.4088 3.60652 15.9575 3.50104 15.5 3.49998C15.14 3.49998 14.798 3.56298 14.48 3.67848C14.7455 4.10448 14.9645 4.56348 15.1325 5.04498C15.4182 4.97412 15.7184 4.98871 15.9959 5.08694C16.2734 5.18517 16.5159 5.36272 16.6934 5.59755C16.8709 5.83238 16.9755 6.11415 16.9942 6.40791C17.013 6.70166 16.9451 6.99446 16.799 7.24998ZM14.75 17H7.24999V17.75C7.24999 17.9489 7.32901 18.1397 7.46966 18.2803C7.61031 18.421 7.80108 18.5 7.99999 18.5H14C14.1989 18.5 14.3897 18.421 14.5303 18.2803C14.671 18.1397 14.75 17.9489 14.75 17.75V17ZM6.72199 15.5H15.278C17.657 14.735 19.163 12.572 19.799 8.74998H2.20099C2.83699 12.572 4.34299 14.735 6.72199 15.5Z" fill="#F0F0F0"/>
</svg>
