<svg width="24" height="25" viewBox="0 0 24 25" fill="none" xmlns="http://www.w3.org/2000/svg">
<g clip-path="url(#clip0_102_4)">
<path d="M13 20.3773C14.736 20.3773 16.4008 19.6877 17.6283 18.4602C18.8558 17.2327 19.5455 15.5678 19.5455 13.8318C19.5455 12.0959 18.8558 10.431 17.6283 9.20351C16.4008 7.976 14.736 7.28639 13 7.28639C11.264 7.28639 9.59918 7.976 8.37167 9.20351C7.14415 10.431 6.45455 12.0959 6.45455 13.8318C6.45455 15.5678 7.14415 17.2327 8.37167 18.4602C9.59918 19.6877 11.264 20.3773 13 20.3773ZM23.9091 13.8318H25ZM13 2.92276V1.83185ZM13 25.8318V24.7409ZM21.7273 22.5591L20.6364 21.4682ZM21.7273 5.10458L20.6364 6.19548ZM4.27273 22.5591L5.36364 21.4682ZM4.27273 5.10458L5.36364 6.19548ZM1 13.8318H2.09091Z" fill="white"/>
<path d="M23.9091 13.8318H25M13 2.92276V1.83185M13 25.8318V24.7409M21.7273 22.5591L20.6364 21.4682M21.7273 5.10458L20.6364 6.19548M4.27273 22.5591L5.36364 21.4682M4.27273 5.10458L5.36364 6.19548M1 13.8318H2.09091M13 20.3773C14.736 20.3773 16.4008 19.6877 17.6283 18.4602C18.8558 17.2327 19.5455 15.5678 19.5455 13.8318C19.5455 12.0959 18.8558 10.431 17.6283 9.20351C16.4008 7.976 14.736 7.28639 13 7.28639C11.264 7.28639 9.59918 7.976 8.37167 9.20351C7.14415 10.431 6.45455 12.0959 6.45455 13.8318C6.45455 15.5678 7.14415 17.2327 8.37167 18.4602C9.59918 19.6877 11.264 20.3773 13 20.3773Z" stroke="#F0F0F0" stroke-width="3.125" stroke-linecap="round" stroke-linejoin="round"/>
</g>
<defs>
<clipPath id="clip0_102_4">
<rect width="24" height="24" fill="white" transform="translate(0 0.831848)"/>
</clipPath>
</defs>
</svg>
