<svg width="152" height="56" viewBox="0 0 152 56" fill="none" xmlns="http://www.w3.org/2000/svg">
<path d="M46.778 6.86C47.9767 7.092 48.866 7.498 49.446 8.078C50.0647 8.658 50.374 9.33466 50.374 10.108C50.374 11.384 50.0067 12.312 49.272 12.892C48.576 13.472 47.4547 13.704 45.908 13.588C42.428 13.3173 39.702 13.1433 37.73 13.066C35.7967 12.95 33.2447 12.8727 30.074 12.834C28.6433 19.9487 27.3287 27.102 26.13 34.294C25.7047 36.9233 25.26 39.978 24.796 43.458C24.332 46.8993 24.0227 49.6833 23.868 51.81C23.7907 52.9313 23.3267 53.8013 22.476 54.42C21.6253 55 20.6007 55.29 19.402 55.29C18.126 55.29 17.14 54.9807 16.444 54.362C15.748 53.7433 15.4 52.9313 15.4 51.926C15.4 50.998 15.5353 49.4707 15.806 47.344C16.1153 45.1787 16.4633 42.9167 16.85 40.558C17.2753 38.1993 17.604 36.15 17.836 34.41C18.2613 31.4713 18.7447 28.552 19.286 25.652C19.8273 22.752 20.3687 20.0067 20.91 17.416C21.026 16.836 21.1613 16.1787 21.316 15.444C21.4707 14.6707 21.6447 13.82 21.838 12.892C18.0487 13.008 15.0713 13.3173 12.906 13.82C10.7407 14.3227 9.194 15.038 8.266 15.966C7.37667 16.8553 6.932 18.0153 6.932 19.446C6.932 20.7607 7.31867 22.0173 8.092 23.216C8.24667 23.4867 8.324 23.7767 8.324 24.086C8.324 24.8207 7.87933 25.5167 6.99 26.174C6.13933 26.7927 5.25 27.102 4.322 27.102C3.66467 27.102 3.12333 26.9087 2.698 26.522C1.92467 25.8647 1.28667 24.9367 0.784 23.738C0.281333 22.5007 0.03 21.1087 0.03 19.562C0.03 16.2753 1.09333 13.646 3.22 11.674C5.38533 9.66333 8.65267 8.194 13.022 7.266C17.43 6.338 23.0753 5.874 29.958 5.874C34.2113 5.874 37.5947 5.95133 40.108 6.106C42.66 6.26066 44.8833 6.512 46.778 6.86ZM66.0945 37.194C66.5971 37.194 66.9838 37.4453 67.2545 37.948C67.5251 38.4507 67.6605 39.0887 67.6605 39.862C67.6605 41.718 67.0998 42.82 65.9785 43.168C63.6585 43.98 61.1065 44.444 58.3225 44.56C57.5878 47.808 56.1378 50.418 53.9725 52.39C51.8071 54.3233 49.3518 55.29 46.6065 55.29C44.2865 55.29 42.2951 54.7293 40.6325 53.608C39.0085 52.4867 37.7711 50.998 36.9205 49.142C36.0698 47.286 35.6445 45.2753 35.6445 43.11C35.6445 40.1713 36.2051 37.5613 37.3265 35.28C38.4478 32.96 39.9945 31.162 41.9665 29.886C43.9385 28.5713 46.1231 27.914 48.5205 27.914C51.4591 27.914 53.8178 28.9387 55.5965 30.988C57.4138 32.9987 58.4771 35.4927 58.7865 38.47C60.6038 38.354 62.7691 37.9673 65.2825 37.31C65.5918 37.2327 65.8625 37.194 66.0945 37.194ZM47.0705 49.142C48.3078 49.142 49.3711 48.6393 50.2605 47.634C51.1885 46.6287 51.8071 45.1787 52.1165 43.284C50.9178 42.472 49.9898 41.4087 49.3325 40.094C48.7138 38.7793 48.4045 37.3873 48.4045 35.918C48.4045 35.2993 48.4625 34.6807 48.5785 34.062H48.2885C46.7418 34.062 45.4465 34.816 44.4025 36.324C43.3971 37.7933 42.8945 39.8813 42.8945 42.588C42.8945 44.7147 43.3005 46.3387 44.1125 47.46C44.9631 48.5813 45.9491 49.142 47.0705 49.142ZM87.8324 48.968C89.4178 49.2773 90.2104 50.1473 90.2104 51.578C90.2104 52.5447 89.7658 53.4147 88.8764 54.188C88.0258 54.9227 86.7884 55.29 85.1644 55.29C82.3804 55.29 80.0991 54.4393 78.3204 52.738C76.5804 50.998 75.7104 48.736 75.7104 45.952C75.7104 44.444 76.4838 43.3613 78.0304 42.704C79.7318 41.9693 80.9498 41.196 81.6844 40.384C82.4191 39.5333 82.7864 38.5087 82.7864 37.31C82.7864 36.614 82.6318 36.092 82.3224 35.744C82.0518 35.396 81.7038 35.222 81.2784 35.222C80.2344 35.222 79.0744 35.976 77.7984 37.484C76.5611 38.992 75.4011 40.9447 74.3184 43.342C73.2358 45.7007 72.3851 48.1367 71.7664 50.65C71.3411 52.4673 70.8384 53.7047 70.2584 54.362C69.7171 54.9807 68.8471 55.29 67.6484 55.29C66.4498 55.29 65.5604 54.8647 64.9804 54.014C64.4391 53.1247 64.0718 51.7713 63.8784 49.954C63.6851 48.1367 63.5884 45.4687 63.5884 41.95C63.5884 35.9953 64.1878 29.7893 65.3864 23.332C66.6238 16.8747 68.4218 11.4613 70.7804 7.092C73.1778 2.684 76.0391 0.479997 79.3644 0.479997C81.1431 0.479997 82.5738 1.25333 83.6564 2.8C84.7778 4.308 85.3384 6.28 85.3384 8.716C85.3384 12.6213 84.1978 16.6813 81.9164 20.896C79.6351 25.072 75.9231 29.9633 70.7804 35.57C70.6644 37.5807 70.6064 39.6493 70.6064 41.776C72.4624 36.9427 74.5891 33.4433 76.9864 31.278C79.3838 29.074 81.6264 27.972 83.7144 27.972C85.6478 27.972 87.1944 28.6293 88.3544 29.944C89.5531 31.2587 90.1524 32.8827 90.1524 34.816C90.1524 36.9427 89.6111 38.8953 88.5284 40.674C87.4458 42.4527 85.5898 44.038 82.9604 45.43C83.1924 46.59 83.6564 47.402 84.3524 47.866C85.0871 48.2913 86.2471 48.6587 87.8324 48.968ZM78.1464 6.222C77.4504 6.222 76.6771 7.22733 75.8264 9.238C74.9758 11.21 74.1444 13.8973 73.3324 17.3C72.5591 20.664 71.9211 24.3373 71.4184 28.32C73.8158 25.4973 75.7878 22.4233 77.3344 19.098C78.9198 15.7727 79.7124 12.7567 79.7124 10.05C79.7124 8.81266 79.5771 7.86533 79.3064 7.208C79.0358 6.55066 78.6491 6.222 78.1464 6.222Z" fill="white"/>
<path d="M101.527 24.144C99.9025 24.144 98.6845 23.7767 97.8725 23.042C97.0605 22.2687 96.6545 21.2053 96.6545 19.852C96.6545 18.4987 97.1765 17.3773 98.2205 16.488C99.3032 15.56 100.637 15.096 102.223 15.096C103.653 15.096 104.813 15.444 105.703 16.14C106.592 16.836 107.037 17.822 107.037 19.098C107.037 20.6447 106.534 21.882 105.529 22.81C104.523 23.6993 103.189 24.144 101.527 24.144ZM101.063 55.29C98.5492 55.29 96.7125 54.4007 95.5525 52.622C94.4312 50.8433 93.8705 48.4847 93.8705 45.546C93.8705 43.806 94.0832 41.5827 94.5085 38.876C94.9725 36.1307 95.5525 33.5787 96.2485 31.22C96.5965 29.9827 97.0605 29.132 97.6405 28.668C98.2205 28.204 99.1485 27.972 100.425 27.972C102.397 27.972 103.383 28.6293 103.383 29.944C103.383 30.9107 103.015 33.1533 102.281 36.672C101.353 40.9253 100.889 43.806 100.889 45.314C100.889 46.474 101.043 47.3633 101.353 47.982C101.662 48.6007 102.184 48.91 102.919 48.91C103.615 48.91 104.485 48.4267 105.529 47.46C106.573 46.4933 107.965 44.966 109.705 42.878C110.169 42.3367 110.691 42.066 111.271 42.066C111.773 42.066 112.16 42.298 112.431 42.762C112.74 43.226 112.895 43.864 112.895 44.676C112.895 46.2227 112.527 47.4213 111.793 48.272C107.965 52.9507 104.388 55.29 101.063 55.29ZM112.82 55.29C111.351 55.29 110.307 54.5167 109.688 52.97C109.108 51.4233 108.818 48.9487 108.818 45.546C108.818 40.5193 109.533 35.744 110.964 31.22C111.312 30.0987 111.873 29.2867 112.646 28.784C113.458 28.2427 114.579 27.972 116.01 27.972C116.783 27.972 117.325 28.0687 117.634 28.262C117.943 28.4553 118.098 28.8227 118.098 29.364C118.098 29.9827 117.808 31.3747 117.228 33.54C116.841 35.0867 116.532 36.44 116.3 37.6C116.068 38.76 115.875 40.1907 115.72 41.892C116.996 38.5667 118.427 35.86 120.012 33.772C121.597 31.684 123.144 30.1953 124.652 29.306C126.199 28.4167 127.61 27.972 128.886 27.972C131.399 27.972 132.656 29.2287 132.656 31.742C132.656 33.25 132.231 35.976 131.38 39.92C130.645 43.284 130.278 45.5073 130.278 46.59C130.278 48.1367 130.839 48.91 131.96 48.91C132.733 48.91 133.642 48.446 134.686 47.518C135.769 46.5513 137.199 45.0047 138.978 42.878C139.442 42.3367 139.964 42.066 140.544 42.066C141.047 42.066 141.433 42.298 141.704 42.762C142.013 43.226 142.168 43.864 142.168 44.676C142.168 46.2227 141.801 47.4213 141.066 48.272C139.403 50.3213 137.605 52.0033 135.672 53.318C133.777 54.6327 131.612 55.29 129.176 55.29C127.204 55.29 125.715 54.7293 124.71 53.608C123.705 52.448 123.202 50.7853 123.202 48.62C123.202 47.5373 123.473 45.604 124.014 42.82C124.517 40.384 124.768 38.702 124.768 37.774C124.768 37.1553 124.555 36.846 124.13 36.846C123.627 36.846 122.912 37.5033 121.984 38.818C121.095 40.094 120.167 41.7953 119.2 43.922C118.272 46.0487 117.518 48.2913 116.938 50.65C116.513 52.4673 116.01 53.7047 115.43 54.362C114.889 54.9807 114.019 55.29 112.82 55.29ZM145.979 24.144C144.355 24.144 143.137 23.7767 142.325 23.042C141.513 22.2687 141.107 21.2053 141.107 19.852C141.107 18.4987 141.629 17.3773 142.673 16.488C143.756 15.56 145.09 15.096 146.675 15.096C148.106 15.096 149.266 15.444 150.155 16.14C151.045 16.836 151.489 17.822 151.489 19.098C151.489 20.6447 150.987 21.882 149.981 22.81C148.976 23.6993 147.642 24.144 145.979 24.144ZM140.411 55.29C139.174 55.29 138.323 55.0387 137.859 54.536C137.395 54.0333 137.163 53.2407 137.163 52.158C137.163 51.8487 137.202 51.3073 137.279 50.534C137.898 43.458 138.923 37.02 140.353 31.22C140.663 30.0213 141.165 29.19 141.861 28.726C142.596 28.2233 143.756 27.972 145.341 27.972C147.004 27.972 147.835 28.6487 147.835 30.002C147.835 30.1953 147.797 30.5627 147.719 31.104C145.979 39.3787 144.935 46.3193 144.587 51.926C144.51 53.1633 144.143 54.0333 143.485 54.536C142.828 55.0387 141.803 55.29 140.411 55.29Z" fill="#663300"/>
</svg>
