<svg width="20" height="21" viewBox="0 0 20 21" fill="none" xmlns="http://www.w3.org/2000/svg">
<path d="M15.0824 14.7309L18.6667 18.3143L17.4825 19.4985L13.8991 15.9142C12.5657 16.9831 10.9073 17.5644 9.19841 17.562C5.04088 17.562 1.66666 14.1878 1.66666 10.0303C1.66666 5.87273 5.04088 2.4985 9.19841 2.4985C13.3559 2.4985 16.7302 5.87273 16.7302 10.0303C16.7326 11.7391 16.1512 13.3976 15.0824 14.7309ZM13.4036 14.11C14.4657 13.0178 15.0588 11.5537 15.0564 10.0303C15.0564 6.79411 12.4346 4.17223 9.19841 4.17223C5.96227 4.17223 3.34038 6.79411 3.34038 10.0303C3.34038 13.2664 5.96227 15.8883 9.19841 15.8883C10.7219 15.8907 12.1859 15.2976 13.2781 14.2355L13.4036 14.11Z" fill="white"/>
</svg>
