<svg width="16" height="22" viewBox="0 0 16 22" fill="none" xmlns="http://www.w3.org/2000/svg">
<path fill-rule="evenodd" clip-rule="evenodd" d="M11.0932 4.39999H2.9068C2.56721 4.40024 2.23152 4.47251 1.92192 4.61205C1.61231 4.75158 1.33582 4.9552 1.11071 5.20946C0.885592 5.46372 0.716969 5.76284 0.615973 6.08707C0.514976 6.4113 0.483903 6.75327 0.524804 7.09039L1.9888 19.0904C2.05975 19.6725 2.34134 20.2084 2.78041 20.5971C3.21947 20.9857 3.78563 21.2002 4.372 21.2H9.634C10.2202 21.1999 10.786 20.9853 11.2249 20.5967C11.6637 20.208 11.9451 19.6723 12.016 19.0904L13.4764 7.09039C13.5175 6.75313 13.4865 6.41099 13.3856 6.08659C13.2846 5.76219 13.1158 5.46293 12.8906 5.20861C12.6653 4.95428 12.3886 4.75069 12.0787 4.61129C11.7689 4.4719 11.433 4.39988 11.0932 4.39999ZM2.7616 5.60839C2.81019 5.60261 2.85908 5.59981 2.908 5.59999H11.0944C11.2642 5.59996 11.432 5.63594 11.5868 5.70556C11.7417 5.77519 11.88 5.87688 11.9926 6.0039C12.1052 6.13093 12.1896 6.28041 12.2402 6.44246C12.2908 6.60451 12.3064 6.77546 12.286 6.94399L10.8244 18.944C10.7892 19.235 10.6487 19.5031 10.4294 19.6977C10.2101 19.8922 9.92717 19.9998 9.634 20H4.3708C4.07782 19.9998 3.79504 19.8924 3.57576 19.6981C3.35648 19.5038 3.21585 19.236 3.1804 18.9452L1.7164 6.94519C1.67777 6.62933 1.76617 6.31105 1.96218 6.06035C2.15819 5.80966 2.44574 5.64709 2.7616 5.60839Z" fill="#F0F0F0"/>
<path d="M5.7736 16.5764C5.75043 16.6517 5.71266 16.7218 5.66243 16.7825C5.6122 16.8432 5.5505 16.8934 5.48086 16.9303C5.34021 17.0048 5.17572 17.0204 5.0236 16.9736C4.94827 16.9504 4.87824 16.9127 4.81752 16.8624C4.75679 16.8122 4.70655 16.7505 4.66967 16.6809C4.59518 16.5402 4.57961 16.3757 4.6264 16.2236L9.4264 0.623602C9.44956 0.548276 9.48734 0.47825 9.53756 0.417522C9.58779 0.356795 9.64949 0.306555 9.71913 0.269672C9.78878 0.232788 9.865 0.209983 9.94346 0.202559C10.0219 0.195135 10.1011 0.203237 10.1764 0.226402C10.2517 0.249567 10.3217 0.287342 10.3825 0.33757C10.4432 0.387798 10.4934 0.449495 10.5303 0.519139C10.5672 0.588783 10.59 0.66501 10.5974 0.743467C10.6049 0.821924 10.5968 0.901076 10.5736 0.976402L5.7736 16.5764Z" fill="#F0F0F0"/>
<path d="M1.6 11C1.44087 11 1.28826 10.9368 1.17574 10.8243C1.06321 10.7118 1 10.5591 1 10.4C1 10.2409 1.06321 10.0883 1.17574 9.97574C1.28826 9.86322 1.44087 9.80001 1.6 9.80001H12.4C12.5591 9.80001 12.7117 9.86322 12.8243 9.97574C12.9368 10.0883 13 10.2409 13 10.4C13 10.5591 12.9368 10.7118 12.8243 10.8243C12.7117 10.9368 12.5591 11 12.4 11H1.6ZM9.8548 1.38201C9.70366 1.34056 9.57473 1.24162 9.49559 1.10634C9.41645 0.971067 9.39338 0.810195 9.43132 0.658132C9.46926 0.506069 9.56519 0.374885 9.6986 0.292636C9.832 0.210387 9.9923 0.183602 10.1452 0.218009L14.9452 1.41801C15.0963 1.45946 15.2253 1.5584 15.3044 1.69367C15.3835 1.82895 15.4066 1.98982 15.3687 2.14188C15.3307 2.29395 15.2348 2.42513 15.1014 2.50738C14.968 2.58963 14.8077 2.61642 14.6548 2.58201L9.8548 1.38201Z" fill="#F0F0F0"/>
</svg>
